IBM Plex Thai-Thin.ufo
<glyph name="ccedilla" format="1">
  <advance width="487"/>
  <unicode hex="00E7"/>
  <outline>
    <contour>
      <point x="270" y="518" type="curve" smooth="yes" name="hr00"/>
      <point x="138" y="518"/>
      <point x="60" y="428"/>
      <point x="60" y="253" type="curve" smooth="yes"/>
      <point x="60" y="82"/>
      <point x="134" y="-8"/>
      <point x="260" y="-12" type="curve"/>
      <point x="243" y="-84" type="line"/>
      <point x="280" y="-86" type="line" smooth="yes"/>
      <point x="325" y="-88"/>
      <point x="341" y="-107"/>
      <point x="341" y="-132" type="curve" smooth="yes"/>
      <point x="341" y="-166"/>
      <point x="316" y="-184"/>
      <point x="280" y="-184" type="curve" smooth="yes"/>
      <point x="250" y="-184"/>
      <point x="226" y="-174"/>
      <point x="212" y="-157" type="curve"/>
      <point x="199" y="-170" type="line"/>
      <point x="211" y="-187"/>
      <point x="242" y="-202"/>
      <point x="280" y="-202" type="curve" smooth="yes"/>
      <point x="331" y="-202"/>
      <point x="362" y="-169"/>
      <point x="362" y="-131" type="curve" smooth="yes"/>
      <point x="362" y="-95"/>
      <point x="334" y="-72"/>
      <point x="295" y="-72" type="curve" smooth="yes"/>
      <point x="286" y="-72"/>
      <point x="274" y="-73"/>
      <point x="265" y="-75" type="curve"/>
      <point x="263" y="-73" type="line"/>
      <point x="278" y="-12" type="line"/>
      <point x="361" y="-10"/>
      <point x="412" y="29"/>
      <point x="444" y="84" type="curve"/>
      <point x="428" y="95" type="line"/>
      <point x="396" y="40"/>
      <point x="348" y="7"/>
      <point x="270" y="7" type="curve" smooth="yes"/>
      <point x="150" y="7"/>
      <point x="83" y="93"/>
      <point x="83" y="229" type="curve" smooth="yes"/>
      <point x="83" y="277" type="line" smooth="yes"/>
      <point x="83" y="413"/>
      <point x="150" y="499"/>
      <point x="270" y="499" type="curve" smooth="yes"/>
      <point x="342" y="499"/>
      <point x="385" y="467"/>
      <point x="417" y="409" type="curve"/>
      <point x="435" y="418" type="line"/>
      <point x="404" y="478"/>
      <point x="350" y="518"/>
    </contour>
  </outline>
</glyph>
<glyph name="thorn" format="1">
  <advance width="565"/>
  <unicode hex="00FE"/>
  <outline>
    <contour>
      <point x="105" y="-200" type="line" name="hr00"/>
      <point x="126" y="-200" type="line"/>
      <point x="126" y="78" type="line"/>
      <point x="129" y="78" type="line"/>
      <point x="150" y="34"/>
      <point x="204" y="-12"/>
      <point x="293" y="-12" type="curve" smooth="yes"/>
      <point x="426" y="-12"/>
      <point x="505" y="77"/>
      <point x="505" y="253" type="curve" smooth="yes"/>
      <point x="505" y="429"/>
      <point x="426" y="518"/>
      <point x="293" y="518" type="curve" smooth="yes"/>
      <point x="204" y="518"/>
      <point x="150" y="472"/>
      <point x="129" y="428" type="curve"/>
      <point x="126" y="428" type="line"/>
      <point x="126" y="740" type="line"/>
      <point x="105" y="740" type="line"/>
    </contour>
    <contour>
      <point x="293" y="7" type="curve" smooth="yes"/>
      <point x="205" y="7"/>
      <point x="126" y="62"/>
      <point x="126" y="143" type="curve" smooth="yes"/>
      <point x="126" y="363" type="line" smooth="yes"/>
      <point x="126" y="444"/>
      <point x="205" y="499"/>
      <point x="293" y="499" type="curve" smooth="yes"/>
      <point x="414" y="499"/>
      <point x="482" y="414"/>
      <point x="482" y="277" type="curve" smooth="yes"/>
      <point x="482" y="229" type="line" smooth="yes"/>
      <point x="482" y="92"/>
      <point x="414" y="7"/>
    </contour>
  </outline>
</glyph>
<glyph name="u02D7" format="1">
  <advance width="300"/>
  <unicode hex="02D7"/>
  <outline>
    <contour>
      <point x="36" y="251" type="line" name="hr00"/>
      <point x="264" y="251" type="line"/>
      <point x="264" y="271" type="line"/>
      <point x="36" y="271" type="line"/>
    </contour>
  </outline>
</glyph>
<glyph name="macronbelowcomb" format="1">
  <advance width="0"/>
  <unicode hex="0331"/>
  <outline>
    <contour>
      <point x="-278" y="-139" type="line" name="hr00"/>
      <point x="-20" y="-139" type="line"/>
      <point x="-20" y="-121" type="line"/>
      <point x="-278" y="-121" type="line"/>
    </contour>
    <contour>
      <point x="0.0" y="0.0" type="move" name="_bottomright"/>
    </contour>
  </outline>
</glyph>
<glyph name="khoKhai-thai" format="1">
  <advance width="547"/>
  <unicode hex="0E02"/>
  <outline>
    <contour>
      <point x="285" y="-12" type="curve" smooth="yes" name="hr00"/>
      <point x="395" y="-12"/>
      <point x="462" y="64"/>
      <point x="462" y="184" type="curve" smooth="yes"/>
      <point x="462" y="536" type="line"/>
      <point x="441" y="536" type="line"/>
      <point x="441" y="188" type="line" smooth="yes"/>
      <point x="441" y="77"/>
      <point x="383" y="7"/>
      <point x="283" y="7" type="curve" smooth="yes"/>
      <point x="181" y="7"/>
      <point x="123" y="62"/>
      <point x="123" y="162" type="curve" smooth="yes"/>
      <point x="123" y="181" type="line" smooth="yes"/>
      <point x="123" y="245"/>
      <point x="142" y="280"/>
      <point x="174" y="326" type="curve" smooth="yes"/>
      <point x="212" y="381"/>
      <point x="246" y="424"/>
      <point x="246" y="485" type="curve" smooth="yes"/>
      <point x="246" y="516" type="line" smooth="yes"/>
      <point x="246" y="529"/>
      <point x="239" y="536"/>
      <point x="225" y="536" type="curve" smooth="yes"/>
      <point x="86" y="536" type="line"/>
      <point x="86" y="517" type="line"/>
      <point x="225" y="517" type="line"/>
      <point x="225" y="485" type="line" smooth="yes"/>
      <point x="225" y="424"/>
      <point x="190" y="382"/>
      <point x="157" y="336" type="curve" smooth="yes"/>
      <point x="120" y="284"/>
      <point x="100" y="244"/>
      <point x="100" y="172" type="curve" smooth="yes"/>
      <point x="100" y="56"/>
      <point x="169" y="-12"/>
    </contour>
    <contour>
      <point x="462.0" y="0.0" type="move" name="bottomright"/>
    </contour>
    <contour>
      <point x="284.0" y="558.0" type="move" name="top"/>
    </contour>
    <contour>
      <point x="462.0" y="600.0" type="move" name="topright"/>
    </contour>
  </outline>
</glyph>
<glyph name="khoKhuat-thai" format="1">
  <advance width="553"/>
  <unicode hex="0E03"/>
  <outline>
    <contour>
      <point x="291" y="-12" type="curve" smooth="yes" name="hr00"/>
      <point x="401" y="-12"/>
      <point x="468" y="64"/>
      <point x="468" y="184" type="curve" smooth="yes"/>
      <point x="468" y="536" type="line"/>
      <point x="447" y="536" type="line"/>
      <point x="447" y="188" type="line" smooth="yes"/>
      <point x="447" y="74"/>
      <point x="389" y="7"/>
      <point x="289" y="7" type="curve" smooth="yes"/>
      <point x="187" y="7"/>
      <point x="129" y="62"/>
      <point x="129" y="162" type="curve" smooth="yes"/>
      <point x="129" y="181" type="line" smooth="yes"/>
      <point x="129" y="245"/>
      <point x="148" y="280"/>
      <point x="180" y="326" type="curve" smooth="yes"/>
      <point x="218" y="381"/>
      <point x="243" y="415"/>
      <point x="243" y="461" type="curve" smooth="yes"/>
      <point x="243" y="513"/>
      <point x="209" y="548"/>
      <point x="158" y="548" type="curve" smooth="yes"/>
      <point x="117" y="548"/>
      <point x="83" y="525"/>
      <point x="75" y="474" type="curve"/>
      <point x="72" y="474" type="line"/>
      <point x="72" y="548" type="line"/>
      <point x="53" y="548" type="line"/>
      <point x="53" y="422" type="line"/>
      <point x="72" y="422" type="line"/>
      <point x="81" y="502"/>
      <point x="111" y="529"/>
      <point x="156" y="529" type="curve" smooth="yes"/>
      <point x="195" y="529"/>
      <point x="222" y="503"/>
      <point x="222" y="461" type="curve" smooth="yes"/>
      <point x="222" y="415"/>
      <point x="196" y="380"/>
      <point x="163" y="336" type="curve" smooth="yes"/>
      <point x="125" y="285"/>
      <point x="106" y="244"/>
      <point x="106" y="172" type="curve" smooth="yes"/>
      <point x="106" y="56"/>
      <point x="175" y="-12"/>
    </contour>
    <contour>
      <point x="468.0" y="0.0" type="move" name="bottomright"/>
    </contour>
    <contour>
      <point x="288.0" y="558.0" type="move" name="top"/>
    </contour>
    <contour>
      <point x="468.0" y="600.0" type="move" name="topright"/>
    </contour>
  </outline>
</glyph>
<glyph name="choChing-thai" format="1">
  <advance width="558"/>
  <unicode hex="0E09"/>
  <outline>
    <contour>
      <point x="267" y="-12" type="curve" smooth="yes" name="hr00"/>
      <point x="358" y="-12"/>
      <point x="412" y="33"/>
      <point x="432" y="81" type="curve"/>
      <point x="435" y="81" type="line"/>
      <point x="435" y="23" type="line" smooth="yes"/>
      <point x="435" y="7"/>
      <point x="442" y="0"/>
      <point x="462" y="0" type="curve" smooth="yes"/>
      <point x="541" y="0" type="line"/>
      <point x="541" y="19" type="line"/>
      <point x="456" y="19" type="line"/>
      <point x="456" y="357" type="line" smooth="yes"/>
      <point x="456" y="480"/>
      <point x="393" y="548"/>
      <point x="266" y="548" type="curve" smooth="yes"/>
      <point x="158" y="548"/>
      <point x="102" y="501"/>
      <point x="70" y="426" type="curve"/>
      <point x="88" y="418" type="line"/>
      <point x="121" y="495"/>
      <point x="178" y="529"/>
      <point x="267" y="529" type="curve" smooth="yes"/>
      <point x="377" y="529"/>
      <point x="435" y="475"/>
      <point x="435" y="354" type="curve" smooth="yes"/>
      <point x="435" y="153" type="line" smooth="yes"/>
      <point x="435" y="55"/>
      <point x="352" y="7"/>
      <point x="269" y="7" type="curve" smooth="yes"/>
      <point x="171" y="7"/>
      <point x="114" y="57"/>
      <point x="114" y="181" type="curve" smooth="yes"/>
      <point x="114" y="260" type="line"/>
      <point x="93" y="260" type="line"/>
      <point x="93" y="177" type="line" smooth="yes"/>
      <point x="93" y="51"/>
      <point x="154" y="-12"/>
    </contour>
    <contour>
      <point x="456.0" y="0.0" type="move" name="bottomright"/>
    </contour>
    <contour>
      <point x="274.0" y="558.0" type="move" name="top"/>
    </contour>
    <contour>
      <point x="456.0" y="600.0" type="move" name="topright"/>
    </contour>
  </outline>
</glyph>
<glyph name="thoThahan-thai" format="1">
  <advance width="565"/>
  <unicode hex="0E17"/>
  <outline>
    <contour>
      <point x="95" y="0" type="line" name="hr00"/>
      <point x="116" y="0" type="line"/>
      <point x="116" y="383" type="line" smooth="yes"/>
      <point x="116" y="481"/>
      <point x="198" y="529"/>
      <point x="289" y="529" type="curve" smooth="yes"/>
      <point x="397" y="529"/>
      <point x="459" y="471"/>
      <point x="459" y="340" type="curve" smooth="yes"/>
      <point x="459" y="0" type="line"/>
      <point x="480" y="0" type="line"/>
      <point x="480" y="344" type="line" smooth="yes"/>
      <point x="480" y="477"/>
      <point x="414" y="548"/>
      <point x="291" y="548" type="curve" smooth="yes"/>
      <point x="192" y="548"/>
      <point x="139" y="503"/>
      <point x="119" y="455" type="curve"/>
      <point x="116" y="455" type="line"/>
      <point x="116" y="536" type="line"/>
      <point x="95" y="536" type="line"/>
    </contour>
    <contour>
      <point x="480.0" y="0.0" type="move" name="bottomright"/>
    </contour>
    <contour>
      <point x="286.0" y="558.0" type="move" name="top"/>
    </contour>
    <contour>
      <point x="480.0" y="600.0" type="move" name="topright"/>
    </contour>
  </outline>
</glyph>
<glyph name="noNu-thai" format="1">
  <advance width="572"/>
  <unicode hex="0E19"/>
  <outline>
    <contour>
      <point x="273" y="-12" type="curve" smooth="yes" name="hr00"/>
      <point x="372" y="-12"/>
      <point x="426" y="33"/>
      <point x="446" y="81" type="curve"/>
      <point x="449" y="81" type="line"/>
      <point x="449" y="23" type="line" smooth="yes"/>
      <point x="449" y="7"/>
      <point x="456" y="0"/>
      <point x="476" y="0" type="curve" smooth="yes"/>
      <point x="555" y="0" type="line"/>
      <point x="555" y="19" type="line"/>
      <point x="470" y="19" type="line"/>
      <point x="470" y="536" type="line"/>
      <point x="449" y="536" type="line"/>
      <point x="449" y="153" type="line" smooth="yes"/>
      <point x="449" y="55"/>
      <point x="366" y="7"/>
      <point x="275" y="7" type="curve" smooth="yes"/>
      <point x="167" y="7"/>
      <point x="106" y="65"/>
      <point x="106" y="196" type="curve" smooth="yes"/>
      <point x="106" y="536" type="line"/>
      <point x="85" y="536" type="line"/>
      <point x="85" y="192" type="line" smooth="yes"/>
      <point x="85" y="59"/>
      <point x="150" y="-12"/>
    </contour>
    <contour>
      <point x="470.0" y="0.0" type="move" name="bottomright"/>
    </contour>
    <contour>
      <point x="278.0" y="558.0" type="move" name="top"/>
    </contour>
    <contour>
      <point x="470.0" y="600.0" type="move" name="topright"/>
    </contour>
  </outline>
</glyph>
<glyph name="poPla-thai" format="1">
  <advance width="574"/>
  <unicode hex="0E1B"/>
  <outline>
    <contour>
      <point x="286" y="-12" type="curve" smooth="yes" name="hr00"/>
      <point x="411" y="-12"/>
      <point x="489" y="64"/>
      <point x="489" y="184" type="curve" smooth="yes"/>
      <point x="489" y="698" type="line"/>
      <point x="468" y="698" type="line"/>
      <point x="468" y="188" type="line" smooth="yes"/>
      <point x="468" y="74"/>
      <point x="400" y="7"/>
      <point x="286" y="7" type="curve" smooth="yes"/>
      <point x="173" y="7"/>
      <point x="106" y="74"/>
      <point x="106" y="188" type="curve" smooth="yes"/>
      <point x="106" y="536" type="line"/>
      <point x="85" y="536" type="line"/>
      <point x="85" y="184" type="line" smooth="yes"/>
      <point x="85" y="64"/>
      <point x="162" y="-12"/>
    </contour>
    <contour>
      <point x="489.0" y="0.0" type="move" name="bottomright"/>
    </contour>
    <contour>
      <point x="254.0" y="558.0" type="move" name="top"/>
    </contour>
    <contour>
      <point x="468.0" y="600.0" type="move" name="topright"/>
    </contour>
  </outline>
</glyph>
<glyph name="yoYak-thai" format="1">
  <advance width="593"/>
  <unicode hex="0E22"/>
  <outline>
    <contour>
      <point x="291" y="-12" type="curve" smooth="yes" name="hr00"/>
      <point x="426" y="-12"/>
      <point x="508" y="67"/>
      <point x="508" y="190" type="curve" smooth="yes"/>
      <point x="508" y="536" type="line"/>
      <point x="487" y="536" type="line"/>
      <point x="487" y="202" type="line" smooth="yes"/>
      <point x="487" y="77"/>
      <point x="417" y="7"/>
      <point x="291" y="7" type="curve" smooth="yes"/>
      <point x="178" y="7"/>
      <point x="117" y="52"/>
      <point x="117" y="133" type="curve" smooth="yes"/>
      <point x="117" y="158" type="line" smooth="yes"/>
      <point x="117" y="218"/>
      <point x="176" y="269"/>
      <point x="247" y="269" type="curve" smooth="yes"/>
      <point x="310" y="269" type="line"/>
      <point x="310" y="288" type="line"/>
      <point x="247" y="288" type="line" smooth="yes"/>
      <point x="143" y="288"/>
      <point x="113" y="358"/>
      <point x="113" y="414" type="curve" smooth="yes"/>
      <point x="113" y="480"/>
      <point x="155" y="529"/>
      <point x="229" y="529" type="curve" smooth="yes"/>
      <point x="253" y="529"/>
      <point x="278" y="525"/>
      <point x="303" y="519" type="curve"/>
      <point x="307" y="537" type="line"/>
      <point x="285" y="543"/>
      <point x="258" y="548"/>
      <point x="229" y="548" type="curve" smooth="yes"/>
      <point x="144" y="548"/>
      <point x="90" y="495"/>
      <point x="90" y="414" type="curve" smooth="yes"/>
      <point x="90" y="333"/>
      <point x="143" y="283"/>
      <point x="220" y="279" type="curve"/>
      <point x="220" y="277" type="line"/>
      <point x="157" y="270"/>
      <point x="94" y="229"/>
      <point x="94" y="144" type="curve" smooth="yes"/>
      <point x="94" y="42"/>
      <point x="166" y="-12"/>
    </contour>
    <contour>
      <point x="508.0" y="0.0" type="move" name="bottomright"/>
    </contour>
    <contour>
      <point x="311.0" y="558.0" type="move" name="top"/>
    </contour>
    <contour>
      <point x="508.0" y="600.0" type="move" name="topright"/>
    </contour>
  </outline>
</glyph>
<glyph name="roRua-thai" format="1">
  <advance width="538"/>
  <unicode hex="0E23"/>
  <outline>
    <contour>
      <point x="284" y="-12" type="curve" smooth="yes" name="hr00"/>
      <point x="397" y="-12"/>
      <point x="469" y="41"/>
      <point x="469" y="132" type="curve" smooth="yes"/>
      <point x="469" y="235"/>
      <point x="392" y="267"/>
      <point x="308" y="279" type="curve" smooth="yes"/>
      <point x="259" y="286" type="line" smooth="yes"/>
      <point x="172" y="298"/>
      <point x="116" y="328"/>
      <point x="116" y="412" type="curve" smooth="yes"/>
      <point x="116" y="488"/>
      <point x="180" y="529"/>
      <point x="273" y="529" type="curve" smooth="yes"/>
      <point x="361" y="529"/>
      <point x="405" y="496"/>
      <point x="442" y="459" type="curve"/>
      <point x="458" y="473" type="line"/>
      <point x="421" y="512"/>
      <point x="367" y="548"/>
      <point x="273" y="548" type="curve" smooth="yes"/>
      <point x="175" y="548"/>
      <point x="95" y="502"/>
      <point x="95" y="411" type="curve" smooth="yes"/>
      <point x="95" y="307"/>
      <point x="174" y="277"/>
      <point x="254" y="266" type="curve" smooth="yes"/>
      <point x="304" y="259" type="line" smooth="yes"/>
      <point x="398" y="246"/>
      <point x="448" y="212"/>
      <point x="448" y="131" type="curve" smooth="yes"/>
      <point x="448" y="53"/>
      <point x="390" y="7"/>
      <point x="284" y="7" type="curve" smooth="yes"/>
      <point x="195" y="7"/>
      <point x="143" y="35"/>
      <point x="94" y="96" type="curve"/>
      <point x="76" y="84" type="line"/>
      <point x="129" y="14"/>
      <point x="198" y="-12"/>
    </contour>
    <contour>
      <point x="469.0" y="0.0" type="move" name="bottomright"/>
    </contour>
    <contour>
      <point x="274.0" y="558.0" type="move" name="top"/>
    </contour>
    <contour>
      <point x="469.0" y="600.0" type="move" name="topright"/>
    </contour>
  </outline>
</glyph>
<glyph name="hoHip-thai" format="1">
  <advance width="561"/>
  <unicode hex="0E2B"/>
  <outline>
    <contour>
      <point x="95" y="0" type="line" name="hr00"/>
      <point x="116" y="0" type="line"/>
      <point x="116" y="325" type="line"/>
      <point x="284" y="350" type="line" smooth="yes"/>
      <point x="376" y="363"/>
      <point x="430" y="325"/>
      <point x="439" y="234" type="curve" smooth="yes"/>
      <point x="462" y="0" type="line"/>
      <point x="483" y="0" type="line"/>
      <point x="460" y="234" type="line" smooth="yes"/>
      <point x="450" y="336"/>
      <point x="395" y="364"/>
      <point x="334" y="364" type="curve"/>
      <point x="334" y="366" type="line"/>
      <point x="407" y="384"/>
      <point x="452" y="414"/>
      <point x="461" y="471" type="curve" smooth="yes"/>
      <point x="471" y="536" type="line"/>
      <point x="450" y="536" type="line"/>
      <point x="440" y="471" type="line" smooth="yes"/>
      <point x="432" y="418"/>
      <point x="376" y="381"/>
      <point x="284" y="368" type="curve" smooth="yes"/>
      <point x="116" y="343" type="line"/>
      <point x="116" y="536" type="line"/>
      <point x="95" y="536" type="line"/>
    </contour>
    <contour>
      <point x="483.0" y="0.0" type="move" name="bottomright"/>
    </contour>
    <contour>
      <point x="283.0" y="558.0" type="move" name="top"/>
    </contour>
    <contour>
      <point x="474.0" y="600.0" type="move" name="topright"/>
    </contour>
  </outline>
</glyph>
<glyph name="oAng-thai" format="1">
  <advance width="583"/>
  <unicode hex="0E2D"/>
  <outline>
    <contour>
      <point x="292" y="-12" type="curve" smooth="yes" name="hr00"/>
      <point x="436" y="-12"/>
      <point x="513" y="83"/>
      <point x="513" y="267" type="curve" smooth="yes"/>
      <point x="513" y="452"/>
      <point x="434" y="548"/>
      <point x="287" y="548" type="curve" smooth="yes"/>
      <point x="183" y="548"/>
      <point x="99" y="498"/>
      <point x="67" y="427" type="curve"/>
      <point x="84" y="419" type="line"/>
      <point x="116" y="491"/>
      <point x="199" y="529"/>
      <point x="286" y="529" type="curve" smooth="yes"/>
      <point x="414" y="529"/>
      <point x="490" y="444"/>
      <point x="490" y="299" type="curve" smooth="yes"/>
      <point x="490" y="237" type="line" smooth="yes"/>
      <point x="490" y="91"/>
      <point x="416" y="7"/>
      <point x="292" y="7" type="curve" smooth="yes"/>
      <point x="174" y="7"/>
      <point x="98" y="74"/>
      <point x="98" y="189" type="curve" smooth="yes"/>
      <point x="98" y="253" type="line"/>
      <point x="203" y="253" type="line"/>
      <point x="203" y="272" type="line"/>
      <point x="97" y="272" type="line" smooth="yes"/>
      <point x="83" y="272"/>
      <point x="77" y="262"/>
      <point x="77" y="248" type="curve" smooth="yes"/>
      <point x="77" y="187" type="line" smooth="yes"/>
      <point x="77" y="61"/>
      <point x="165" y="-12"/>
    </contour>
    <contour>
      <point x="473.0" y="0.0" type="move" name="bottomright"/>
    </contour>
    <contour>
      <point x="291.0" y="558.0" type="move" name="top"/>
    </contour>
    <contour>
      <point x="473.0" y="600.0" type="move" name="topright"/>
    </contour>
  </outline>
</glyph>
<glyph name="hoNokhuk-thai" format="1">
  <advance width="601"/>
  <unicode hex="0E2E"/>
  <outline>
    <contour>
      <point x="292" y="-12" type="curve" smooth="yes" name="hr00"/>
      <point x="436" y="-12"/>
      <point x="513" y="83"/>
      <point x="513" y="267" type="curve" smooth="yes"/>
      <point x="513" y="401"/>
      <point x="472" y="489"/>
      <point x="393" y="526" type="curve"/>
      <point x="393" y="529" type="line"/>
      <point x="590" y="529" type="line"/>
      <point x="590" y="548" type="line"/>
      <point x="393" y="548" type="line" smooth="yes"/>
      <point x="382" y="548"/>
      <point x="377" y="544"/>
      <point x="376" y="533" type="curve"/>
      <point x="350" y="543"/>
      <point x="320" y="548"/>
      <point x="287" y="548" type="curve" smooth="yes"/>
      <point x="183" y="548"/>
      <point x="99" y="498"/>
      <point x="67" y="427" type="curve"/>
      <point x="84" y="419" type="line"/>
      <point x="116" y="491"/>
      <point x="199" y="529"/>
      <point x="286" y="529" type="curve" smooth="yes"/>
      <point x="414" y="529"/>
      <point x="490" y="444"/>
      <point x="490" y="299" type="curve" smooth="yes"/>
      <point x="490" y="237" type="line" smooth="yes"/>
      <point x="490" y="91"/>
      <point x="416" y="7"/>
      <point x="292" y="7" type="curve" smooth="yes"/>
      <point x="174" y="7"/>
      <point x="98" y="74"/>
      <point x="98" y="189" type="curve" smooth="yes"/>
      <point x="98" y="253" type="line"/>
      <point x="203" y="253" type="line"/>
      <point x="203" y="272" type="line"/>
      <point x="97" y="272" type="line" smooth="yes"/>
      <point x="83" y="272"/>
      <point x="77" y="262"/>
      <point x="77" y="248" type="curve" smooth="yes"/>
      <point x="77" y="187" type="line" smooth="yes"/>
      <point x="77" y="61"/>
      <point x="165" y="-12"/>
    </contour>
    <contour>
      <point x="473.0" y="0.0" type="move" name="bottomright"/>
    </contour>
    <contour>
      <point x="291.0" y="558.0" type="move" name="top"/>
    </contour>
    <contour>
      <point x="473.0" y="600.0" type="move" name="topright"/>
    </contour>
  </outline>
</glyph>
<glyph name="saraUe-thai" format="1">
  <advance width="0"/>
  <unicode hex="0E36"/>
  <outline>
    <contour>
      <point x="-354" y="679" type="line" name="hr00"/>
      <point x="-11" y="679" type="line" smooth="yes"/>
      <point x="30" y="679"/>
      <point x="58" y="710"/>
      <point x="58" y="750" type="curve" smooth="yes"/>
      <point x="58" y="789"/>
      <point x="30" y="819"/>
      <point x="-11" y="819" type="curve" smooth="yes"/>
      <point x="-54" y="819"/>
      <point x="-80" y="789"/>
      <point x="-80" y="750" type="curve" smooth="yes"/>
      <point x="-80" y="729"/>
      <point x="-73" y="711"/>
      <point x="-60" y="698" type="curve"/>
      <point x="-354" y="698" type="line"/>
    </contour>
    <contour>
      <point x="-11" y="698" type="curve" smooth="yes"/>
      <point x="-41" y="698"/>
      <point x="-59" y="717"/>
      <point x="-59" y="739" type="curve" smooth="yes"/>
      <point x="-59" y="759" type="line" smooth="yes"/>
      <point x="-59" y="781"/>
      <point x="-41" y="800"/>
      <point x="-11" y="800" type="curve" smooth="yes"/>
      <point x="19" y="800"/>
      <point x="37" y="781"/>
      <point x="37" y="759" type="curve" smooth="yes"/>
      <point x="37" y="739" type="line" smooth="yes"/>
      <point x="37" y="717"/>
      <point x="19" y="698"/>
    </contour>
    <contour>
      <point x="0.0" y="600.0" type="move" name="_topright"/>
    </contour>
    <contour>
      <point x="0.0" y="840.0" type="move" name="topright"/>
    </contour>
  </outline>
</glyph>
<glyph name="saraE-thai" format="1">
  <advance width="310"/>
  <unicode hex="0E40"/>
  <outline>
    <contour>
      <point x="166" y="0" type="curve" smooth="yes" name="hr00"/>
      <point x="263" y="0" type="line"/>
      <point x="263" y="19" type="line"/>
      <point x="158" y="19" type="line"/>
      <point x="158" y="536" type="line"/>
      <point x="137" y="536" type="line"/>
      <point x="137" y="29" type="line" smooth="yes"/>
      <point x="137" y="9"/>
      <point x="146" y="0"/>
    </contour>
    <contour>
      <point x="218.0" y="0.0" type="move" name="bottomright"/>
    </contour>
    <contour>
      <point x="158.0" y="600.0" type="move" name="topright"/>
    </contour>
  </outline>
</glyph>
<glyph name="saraAiMaimalai-thai" format="1">
  <advance width="310"/>
  <unicode hex="0E44"/>
  <outline>
    <contour>
      <point x="166" y="0" type="curve" smooth="yes" name="hr00"/>
      <point x="263" y="0" type="line"/>
      <point x="263" y="19" type="line"/>
      <point x="158" y="19" type="line"/>
      <point x="158" y="701" type="line" smooth="yes"/>
      <point x="158" y="790"/>
      <point x="209" y="838"/>
      <point x="295" y="838" type="curve" smooth="yes"/>
      <point x="305" y="838" type="line"/>
      <point x="305" y="857" type="line"/>
      <point x="-1" y="857" type="line"/>
      <point x="-1" y="838" type="line"/>
      <point x="228" y="838" type="line"/>
      <point x="228" y="836" type="line"/>
      <point x="178" y="816"/>
      <point x="137" y="780"/>
      <point x="137" y="696" type="curve" smooth="yes"/>
      <point x="137" y="29" type="line" smooth="yes"/>
      <point x="137" y="9"/>
      <point x="146" y="0"/>
    </contour>
  </outline>
</glyph>
<glyph name="maiyamok-thai" format="1">
  <advance width="559"/>
  <unicode hex="0E46"/>
  <outline>
    <contour>
      <point x="448" y="-180" type="line" name="hr00"/>
      <point x="469" y="-180" type="line"/>
      <point x="469" y="414" type="line" smooth="yes"/>
      <point x="469" y="503"/>
      <point x="432" y="548"/>
      <point x="364" y="548" type="curve" smooth="yes"/>
      <point x="298" y="548"/>
      <point x="274" y="498"/>
      <point x="268" y="454" type="curve"/>
      <point x="265" y="454" type="line"/>
      <point x="259" y="498"/>
      <point x="236" y="548"/>
      <point x="171" y="548" type="curve" smooth="yes"/>
      <point x="100" y="548"/>
      <point x="70" y="495"/>
      <point x="70" y="394" type="curve" smooth="yes"/>
      <point x="70" y="301"/>
      <point x="109" y="241"/>
      <point x="190" y="241" type="curve" smooth="yes"/>
      <point x="204" y="241"/>
      <point x="222" y="243"/>
      <point x="231" y="246" type="curve"/>
      <point x="227" y="264" type="line"/>
      <point x="217" y="261"/>
      <point x="207" y="260"/>
      <point x="190" y="260" type="curve" smooth="yes"/>
      <point x="121" y="260"/>
      <point x="93" y="314"/>
      <point x="93" y="375" type="curve" smooth="yes"/>
      <point x="93" y="413" type="line" smooth="yes"/>
      <point x="93" y="481"/>
      <point x="107" y="529"/>
      <point x="176" y="529" type="curve" smooth="yes"/>
      <point x="238" y="529"/>
      <point x="256" y="474"/>
      <point x="258" y="410" type="curve"/>
      <point x="275" y="410" type="line"/>
      <point x="277" y="474"/>
      <point x="297" y="529"/>
      <point x="359" y="529" type="curve" smooth="yes"/>
      <point x="431" y="529"/>
      <point x="448" y="479"/>
      <point x="448" y="418" type="curve" smooth="yes"/>
    </contour>
  </outline>
</glyph>
<glyph name="maitaikhu-thai" format="1">
  <advance width="0"/>
  <unicode hex="0E47"/>
  <outline>
    <contour>
      <point x="-253" y="673" type="curve" smooth="yes" name="hr00"/>
      <point x="-206" y="673"/>
      <point x="-181" y="705"/>
      <point x="-173" y="741" type="curve"/>
      <point x="-170" y="741" type="line"/>
      <point x="-162" y="705"/>
      <point x="-135" y="673"/>
      <point x="-87" y="673" type="curve" smooth="yes"/>
      <point x="-34" y="673"/>
      <point x="0" y="708"/>
      <point x="0" y="765" type="curve" smooth="yes"/>
      <point x="0" y="785" type="line"/>
      <point x="-20" y="785" type="line"/>
      <point x="-20" y="769" type="line" smooth="yes"/>
      <point x="-20" y="716"/>
      <point x="-51" y="691"/>
      <point x="-90" y="691" type="curve" smooth="yes"/>
      <point x="-136" y="691"/>
      <point x="-155" y="727"/>
      <point x="-163" y="761" type="curve"/>
      <point x="-180" y="761" type="line"/>
      <point x="-187" y="727"/>
      <point x="-205" y="691"/>
      <point x="-250" y="691" type="curve" smooth="yes"/>
      <point x="-297" y="691"/>
      <point x="-325" y="719"/>
      <point x="-325" y="772" type="curve" smooth="yes"/>
      <point x="-325" y="823"/>
      <point x="-294" y="855"/>
      <point x="-236" y="855" type="curve" smooth="yes"/>
      <point x="2" y="855" type="line"/>
      <point x="2" y="873" type="line"/>
      <point x="-231" y="873" type="line" smooth="yes"/>
      <point x="-303" y="873"/>
      <point x="-345" y="830"/>
      <point x="-345" y="770" type="curve" smooth="yes"/>
      <point x="-345" y="712"/>
      <point x="-309" y="673"/>
    </contour>
    <contour>
      <point x="0.0" y="600.0" type="move" name="_topright"/>
    </contour>
    <contour>
      <point x="0.0" y="885.0" type="move" name="topright"/>
    </contour>
  </outline>
</glyph>
<glyph name="maiTho-thai" format="1">
  <advance width="0"/>
  <unicode hex="0E49"/>
  <outline>
    <contour>
      <point x="-114" y="681" type="line" name="hr00"/>
      <point x="146" y="681" type="line"/>
      <point x="146" y="698" type="line"/>
      <point x="-10" y="698" type="line"/>
      <point x="-10" y="700" type="line"/>
      <point x="-6" y="713"/>
      <point x="-1" y="738"/>
      <point x="-1" y="760" type="curve" smooth="yes"/>
      <point x="-1" y="810"/>
      <point x="-23" y="834"/>
      <point x="-74" y="834" type="curve" smooth="yes"/>
      <point x="-114" y="834" type="line"/>
      <point x="-114" y="817" type="line"/>
      <point x="-78" y="817" type="line" smooth="yes"/>
      <point x="-38" y="817"/>
      <point x="-21" y="800"/>
      <point x="-21" y="759" type="curve" smooth="yes"/>
      <point x="-21" y="698" type="line"/>
      <point x="-114" y="698" type="line"/>
    </contour>
    <contour>
      <point x="0.0" y="600.0" type="move" name="_topright"/>
    </contour>
  </outline>
</glyph>
<glyph name="maiChattawa-thai" format="1">
  <advance width="0"/>
  <unicode hex="0E4B"/>
  <outline>
    <contour>
      <point x="-20" y="678" type="line" name="hr00"/>
      <point x="0" y="678" type="line"/>
      <point x="0" y="769" type="line"/>
      <point x="91" y="769" type="line"/>
      <point x="91" y="787" type="line"/>
      <point x="0" y="787" type="line"/>
      <point x="0" y="878" type="line"/>
      <point x="-20" y="878" type="line"/>
      <point x="-20" y="787" type="line"/>
      <point x="-111" y="787" type="line"/>
      <point x="-111" y="769" type="line"/>
      <point x="-20" y="769" type="line"/>
    </contour>
    <contour>
      <point x="0.0" y="600.0" type="move" name="_topright"/>
    </contour>
  </outline>
</glyph>
<glyph name="nikhahit-thai" format="1">
  <advance width="0"/>
  <unicode hex="0E4D"/>
  <outline>
    <contour>
      <point x="-10" y="665" type="curve" smooth="yes" name="hr00"/>
      <point x="-50" y="665"/>
      <point x="-75" y="691"/>
      <point x="-75" y="723" type="curve" smooth="yes"/>
      <point x="-75" y="743" type="line" smooth="yes"/>
      <point x="-75" y="775"/>
      <point x="-50" y="801"/>
      <point x="-10" y="801" type="curve" smooth="yes"/>
      <point x="30" y="801"/>
      <point x="55" y="775"/>
      <point x="55" y="743" type="curve" smooth="yes"/>
      <point x="55" y="723" type="line" smooth="yes"/>
      <point x="55" y="691"/>
      <point x="30" y="665"/>
    </contour>
    <contour>
      <point x="-10" y="646" type="curve" smooth="yes"/>
      <point x="43" y="646"/>
      <point x="76" y="684"/>
      <point x="76" y="733" type="curve" smooth="yes"/>
      <point x="76" y="782"/>
      <point x="43" y="820"/>
      <point x="-10" y="820" type="curve" smooth="yes"/>
      <point x="-63" y="820"/>
      <point x="-96" y="782"/>
      <point x="-96" y="733" type="curve" smooth="yes"/>
      <point x="-96" y="684"/>
      <point x="-63" y="646"/>
    </contour>
    <contour>
      <point x="0.0" y="600.0" type="move" name="_topright"/>
    </contour>
    <contour>
      <point x="0.0" y="840.0" type="move" name="topright"/>
    </contour>
  </outline>
</glyph>
<glyph name="zero-thai" format="1">
  <advance width="598"/>
  <unicode hex="0E50"/>
  <outline>
    <contour>
      <point x="299" y="7" type="curve" smooth="yes" name="hr00"/>
      <point x="171" y="7"/>
      <point x="99" y="89"/>
      <point x="99" y="219" type="curve" smooth="yes"/>
      <point x="99" y="269" type="line" smooth="yes"/>
      <point x="99" y="399"/>
      <point x="171" y="481"/>
      <point x="299" y="481" type="curve" smooth="yes"/>
      <point x="427" y="481"/>
      <point x="499" y="399"/>
      <point x="499" y="269" type="curve" smooth="yes"/>
      <point x="499" y="219" type="line" smooth="yes"/>
      <point x="499" y="89"/>
      <point x="427" y="7"/>
    </contour>
    <contour>
      <point x="299" y="-12" type="curve" smooth="yes"/>
      <point x="439" y="-12"/>
      <point x="522" y="75"/>
      <point x="522" y="244" type="curve" smooth="yes"/>
      <point x="522" y="413"/>
      <point x="439" y="500"/>
      <point x="299" y="500" type="curve" smooth="yes"/>
      <point x="159" y="500"/>
      <point x="76" y="413"/>
      <point x="76" y="244" type="curve" smooth="yes"/>
      <point x="76" y="75"/>
      <point x="159" y="-12"/>
    </contour>
  </outline>
</glyph>
<glyph name="two-thai" format="1">
  <advance width="728"/>
  <unicode hex="0E52"/>
  <outline>
    <contour>
      <point x="365" y="-12" type="curve" smooth="yes" name="hr00"/>
      <point x="604" y="-12"/>
      <point x="645" y="69"/>
      <point x="645" y="192" type="curve" smooth="yes"/>
      <point x="645" y="366" type="line" smooth="yes"/>
      <point x="645" y="455"/>
      <point x="611" y="500"/>
      <point x="545" y="500" type="curve" smooth="yes"/>
      <point x="479" y="500"/>
      <point x="455" y="454"/>
      <point x="448" y="406" type="curve"/>
      <point x="445" y="406" type="line"/>
      <point x="439" y="448"/>
      <point x="418" y="500"/>
      <point x="350" y="500" type="curve" smooth="yes"/>
      <point x="280" y="500"/>
      <point x="247" y="445"/>
      <point x="247" y="356" type="curve" smooth="yes"/>
      <point x="247" y="256"/>
      <point x="288" y="205"/>
      <point x="369" y="205" type="curve" smooth="yes"/>
      <point x="385" y="205"/>
      <point x="402" y="207"/>
      <point x="411" y="210" type="curve"/>
      <point x="407" y="228" type="line"/>
      <point x="397" y="225"/>
      <point x="385" y="224"/>
      <point x="374" y="224" type="curve" smooth="yes"/>
      <point x="293" y="224"/>
      <point x="270" y="279"/>
      <point x="270" y="333" type="curve" smooth="yes"/>
      <point x="270" y="371" type="line" smooth="yes"/>
      <point x="270" y="429"/>
      <point x="287" y="481"/>
      <point x="353" y="481" type="curve" smooth="yes"/>
      <point x="417" y="481"/>
      <point x="435" y="432"/>
      <point x="438" y="362" type="curve"/>
      <point x="455" y="362" type="line"/>
      <point x="458" y="432"/>
      <point x="478" y="481"/>
      <point x="543" y="481" type="curve" smooth="yes"/>
      <point x="611" y="481"/>
      <point x="624" y="426"/>
      <point x="624" y="370" type="curve" smooth="yes"/>
      <point x="624" y="192" type="line" smooth="yes"/>
      <point x="624" y="138"/>
      <point x="616" y="99"/>
      <point x="591" y="69" type="curve" smooth="yes"/>
      <point x="557" y="28"/>
      <point x="494" y="7"/>
      <point x="390" y="7" type="curve" smooth="yes"/>
      <point x="340" y="7" type="line" smooth="yes"/>
      <point x="236" y="7"/>
      <point x="173" y="28"/>
      <point x="139" y="69" type="curve" smooth="yes"/>
      <point x="114" y="99"/>
      <point x="106" y="138"/>
      <point x="106" y="192" type="curve" smooth="yes"/>
      <point x="106" y="569" type="line"/>
      <point x="85" y="569" type="line"/>
      <point x="85" y="192" type="line" smooth="yes"/>
      <point x="85" y="69"/>
      <point x="125" y="-12"/>
    </contour>
  </outline>
</glyph>
<glyph name="three-thai" format="1">
  <advance width="703"/>
  <unicode hex="0E53"/>
  <outline>
    <contour>
      <point x="277" y="-12" type="curve" smooth="yes" name="hr00"/>
      <point x="305" y="-12"/>
      <point x="329" y="-9"/>
      <point x="350" y="-5" type="curve"/>
      <point x="346" y="14" type="line"/>
      <point x="321" y="8"/>
      <point x="299" y="7"/>
      <point x="277" y="7" type="curve" smooth="yes"/>
      <point x="160" y="7"/>
      <point x="103" y="118"/>
      <point x="103" y="231" type="curve" smooth="yes"/>
      <point x="103" y="290" type="line" smooth="yes"/>
      <point x="103" y="406"/>
      <point x="148" y="481"/>
      <point x="233" y="481" type="curve" smooth="yes"/>
      <point x="309" y="481"/>
      <point x="337" y="423"/>
      <point x="337" y="362" type="curve" smooth="yes"/>
      <point x="337" y="159" type="line"/>
      <point x="358" y="159" type="line"/>
      <point x="358" y="362" type="line" smooth="yes"/>
      <point x="358" y="424"/>
      <point x="390" y="481"/>
      <point x="478" y="481" type="curve" smooth="yes"/>
      <point x="568" y="481"/>
      <point x="597" y="412"/>
      <point x="597" y="328" type="curve" smooth="yes"/>
      <point x="597" y="0" type="line"/>
      <point x="618" y="0" type="line"/>
      <point x="618" y="334" type="line" smooth="yes"/>
      <point x="618" y="427"/>
      <point x="576" y="500"/>
      <point x="477" y="500" type="curve" smooth="yes"/>
      <point x="385" y="500"/>
      <point x="355" y="445"/>
      <point x="350" y="406" type="curve"/>
      <point x="347" y="406" type="line"/>
      <point x="342" y="445"/>
      <point x="312" y="500"/>
      <point x="234" y="500" type="curve" smooth="yes"/>
      <point x="141" y="500"/>
      <point x="80" y="428"/>
      <point x="80" y="261" type="curve" smooth="yes"/>
      <point x="80" y="101"/>
      <point x="149" y="-12"/>
    </contour>
  </outline>
</glyph>
<glyph name="five-thai" format="1">
  <advance width="551"/>
  <unicode hex="0E55"/>
  <outline>
    <contour>
      <point x="288" y="0" type="curve" smooth="yes" name="hr00"/>
      <point x="512" y="0" type="line"/>
      <point x="512" y="19" type="line"/>
      <point x="511" y="19" type="line" smooth="yes"/>
      <point x="397" y="19"/>
      <point x="341" y="101"/>
      <point x="341" y="188" type="curve" smooth="yes"/>
      <point x="341" y="230" type="line"/>
      <point x="473" y="230" type="line"/>
      <point x="473" y="249" type="line"/>
      <point x="347" y="249" type="line" smooth="yes"/>
      <point x="327" y="249"/>
      <point x="321" y="241"/>
      <point x="321" y="226" type="curve" smooth="yes"/>
      <point x="321" y="191" type="line" smooth="yes"/>
      <point x="321" y="92"/>
      <point x="372" y="36"/>
      <point x="432" y="22" type="curve"/>
      <point x="432" y="19" type="line"/>
      <point x="288" y="19" type="line" smooth="yes"/>
      <point x="172" y="19"/>
      <point x="99" y="84"/>
      <point x="99" y="203" type="curve" smooth="yes"/>
      <point x="99" y="244" type="line" smooth="yes"/>
      <point x="99" y="331"/>
      <point x="146" y="396"/>
      <point x="251" y="422" type="curve" smooth="yes"/>
      <point x="415" y="463" type="line" smooth="yes"/>
      <point x="456" y="473"/>
      <point x="466" y="488"/>
      <point x="469" y="513" type="curve" smooth="yes"/>
      <point x="477" y="569" type="line"/>
      <point x="455" y="569" type="line"/>
      <point x="448" y="513" type="line" smooth="yes"/>
      <point x="446" y="496"/>
      <point x="436" y="488"/>
      <point x="415" y="482" type="curve"/>
      <point x="333" y="462" type="line"/>
      <point x="343" y="473"/>
      <point x="349" y="487"/>
      <point x="349" y="503" type="curve" smooth="yes"/>
      <point x="349" y="542"/>
      <point x="323" y="572"/>
      <point x="280" y="572" type="curve" smooth="yes"/>
      <point x="237" y="572"/>
      <point x="211" y="542"/>
      <point x="211" y="503" type="curve" smooth="yes"/>
      <point x="211" y="474"/>
      <point x="227" y="451"/>
      <point x="255" y="442" type="curve"/>
      <point x="133" y="414"/>
      <point x="76" y="353"/>
      <point x="76" y="223" type="curve" smooth="yes"/>
      <point x="76" y="65"/>
      <point x="159" y="0"/>
    </contour>
    <contour>
      <point x="280" y="451" type="curve" smooth="yes"/>
      <point x="250" y="451"/>
      <point x="231" y="470"/>
      <point x="231" y="492" type="curve" smooth="yes"/>
      <point x="231" y="513" type="line" smooth="yes"/>
      <point x="231" y="535"/>
      <point x="250" y="554"/>
      <point x="280" y="554" type="curve" smooth="yes"/>
      <point x="310" y="554"/>
      <point x="329" y="535"/>
      <point x="329" y="513" type="curve" smooth="yes"/>
      <point x="329" y="492" type="line" smooth="yes"/>
      <point x="329" y="470"/>
      <point x="310" y="451"/>
    </contour>
  </outline>
</glyph>
<glyph name="six-thai" format="1">
  <advance width="561"/>
  <unicode hex="0E56"/>
  <outline>
    <contour>
      <point x="262" y="-12" type="curve" smooth="yes" name="hr00"/>
      <point x="402" y="-12"/>
      <point x="485" y="76"/>
      <point x="485" y="249" type="curve" smooth="yes"/>
      <point x="485" y="415"/>
      <point x="409" y="500"/>
      <point x="282" y="500" type="curve" smooth="yes"/>
      <point x="191" y="500"/>
      <point x="117" y="448"/>
      <point x="100" y="366" type="curve"/>
      <point x="97" y="366" type="line"/>
      <point x="64" y="569" type="line"/>
      <point x="42" y="569" type="line"/>
      <point x="86" y="330" type="line"/>
      <point x="105" y="329" type="line"/>
      <point x="119" y="429"/>
      <point x="184" y="481"/>
      <point x="282" y="481" type="curve" smooth="yes"/>
      <point x="398" y="481"/>
      <point x="462" y="400"/>
      <point x="462" y="274" type="curve" smooth="yes"/>
      <point x="462" y="224" type="line" smooth="yes"/>
      <point x="462" y="91"/>
      <point x="390" y="7"/>
      <point x="262" y="7" type="curve" smooth="yes"/>
      <point x="178" y="7"/>
      <point x="127" y="42"/>
      <point x="93" y="100" type="curve"/>
      <point x="77" y="89" type="line"/>
      <point x="112" y="29"/>
      <point x="168" y="-12"/>
    </contour>
  </outline>
</glyph>
<glyph name="seven-thai" format="1">
  <advance width="835"/>
  <unicode hex="0E57"/>
  <outline>
    <contour>
      <point x="267" y="-12" type="curve" smooth="yes" name="hr00"/>
      <point x="295" y="-12"/>
      <point x="319" y="-9"/>
      <point x="340" y="-5" type="curve"/>
      <point x="336" y="14" type="line"/>
      <point x="311" y="8"/>
      <point x="289" y="7"/>
      <point x="267" y="7" type="curve" smooth="yes"/>
      <point x="157" y="7"/>
      <point x="103" y="118"/>
      <point x="103" y="231" type="curve" smooth="yes"/>
      <point x="103" y="290" type="line" smooth="yes"/>
      <point x="103" y="412"/>
      <point x="143" y="481"/>
      <point x="219" y="481" type="curve" smooth="yes"/>
      <point x="284" y="481"/>
      <point x="302" y="425"/>
      <point x="304" y="362" type="curve"/>
      <point x="321" y="362" type="line"/>
      <point x="323" y="425"/>
      <point x="343" y="481"/>
      <point x="417" y="481" type="curve" smooth="yes"/>
      <point x="514" y="481"/>
      <point x="514" y="391"/>
      <point x="514" y="349" type="curve" smooth="yes"/>
      <point x="514" y="0" type="line"/>
      <point x="577" y="0" type="line" smooth="yes"/>
      <point x="688" y="0"/>
      <point x="750" y="67"/>
      <point x="750" y="183" type="curve" smooth="yes"/>
      <point x="750" y="569" type="line"/>
      <point x="729" y="569" type="line"/>
      <point x="729" y="187" type="line" smooth="yes"/>
      <point x="729" y="74"/>
      <point x="673" y="19"/>
      <point x="577" y="19" type="curve" smooth="yes"/>
      <point x="535" y="19" type="line"/>
      <point x="535" y="356" type="line" smooth="yes"/>
      <point x="535" y="446"/>
      <point x="502" y="500"/>
      <point x="418" y="500" type="curve" smooth="yes"/>
      <point x="344" y="500"/>
      <point x="320" y="450"/>
      <point x="314" y="406" type="curve"/>
      <point x="311" y="406" type="line"/>
      <point x="305" y="450"/>
      <point x="282" y="500"/>
      <point x="219" y="500" type="curve" smooth="yes"/>
      <point x="134" y="500"/>
      <point x="80" y="428"/>
      <point x="80" y="261" type="curve" smooth="yes"/>
      <point x="80" y="101"/>
      <point x="145" y="-12"/>
    </contour>
  </outline>
</glyph>
<glyph name="khomut-thai" format="1">
  <advance width="1401"/>
  <unicode hex="0E5B"/>
  <outline>
    <contour>
      <point x="308" y="-12" type="curve" smooth="yes" name="hr00"/>
      <point x="489" y="-12"/>
      <point x="580" y="149"/>
      <point x="617" y="449" type="curve"/>
      <point x="619" y="449" type="line"/>
      <point x="738" y="76" type="line"/>
      <point x="764" y="76" type="line"/>
      <point x="871" y="413" type="line"/>
      <point x="873" y="413" type="line"/>
      <point x="970" y="108" type="line"/>
      <point x="996" y="108" type="line"/>
      <point x="1086" y="392" type="line"/>
      <point x="1088" y="392" type="line"/>
      <point x="1126" y="284"/>
      <point x="1171" y="238"/>
      <point x="1258" y="238" type="curve" smooth="yes"/>
      <point x="1321" y="238" type="line"/>
      <point x="1321" y="257" type="line"/>
      <point x="1258" y="257" type="line" smooth="yes"/>
      <point x="1176" y="257"/>
      <point x="1135" y="301"/>
      <point x="1099" y="421" type="curve"/>
      <point x="1074" y="421" type="line"/>
      <point x="984" y="138" type="line"/>
      <point x="982" y="138" type="line"/>
      <point x="885" y="443" type="line"/>
      <point x="859" y="443" type="line"/>
      <point x="752" y="106" type="line"/>
      <point x="750" y="106" type="line"/>
      <point x="631" y="479" type="line"/>
      <point x="602" y="479" type="line"/>
      <point x="564" y="157"/>
      <point x="481" y="7"/>
      <point x="308" y="7" type="curve" smooth="yes"/>
      <point x="187" y="7"/>
      <point x="103" y="91"/>
      <point x="103" y="237" type="curve" smooth="yes"/>
      <point x="103" y="299" type="line" smooth="yes"/>
      <point x="103" y="445"/>
      <point x="189" y="529"/>
      <point x="307" y="529" type="curve" smooth="yes"/>
      <point x="369" y="529"/>
      <point x="404" y="516"/>
      <point x="440" y="488" type="curve"/>
      <point x="451" y="504" type="line"/>
      <point x="420" y="527"/>
      <point x="380" y="548"/>
      <point x="306" y="548" type="curve" smooth="yes"/>
      <point x="169" y="548"/>
      <point x="80" y="452"/>
      <point x="80" y="267" type="curve" smooth="yes"/>
      <point x="80" y="82"/>
      <point x="167" y="-12"/>
    </contour>
  </outline>
</glyph>
<glyph name="guilsinglleft" format="1">
  <advance width="292"/>
  <unicode hex="2039"/>
  <outline>
    <contour>
      <point x="241" y="121" type="line" name="hr00"/>
      <point x="57" y="294" type="line"/>
      <point x="241" y="467" type="line"/>
      <point x="232" y="482" type="line"/>
      <point x="34" y="304" type="line"/>
      <point x="34" y="284" type="line"/>
      <point x="232" y="106" type="line"/>
    </contour>
  </outline>
</glyph>
<glyph name="dottedCircle" format="1">
  <advance width="652"/>
  <unicode hex="25CC"/>
  <outline>
    <contour>
      <point x="92" y="127" type="curve" smooth="yes" name="hr00"/>
      <point x="104" y="127"/>
      <point x="114" y="137"/>
      <point x="114" y="149" type="curve" smooth="yes"/>
      <point x="114" y="161"/>
      <point x="104" y="171"/>
      <point x="92" y="171" type="curve" smooth="yes"/>
      <point x="80" y="171"/>
      <point x="70" y="161"/>
      <point x="70" y="149" type="curve" smooth="yes"/>
      <point x="70" y="137"/>
      <point x="80" y="127"/>
    </contour>
    <contour>
      <point x="52" y="245" type="curve" smooth="yes"/>
      <point x="64" y="245"/>
      <point x="74" y="255"/>
      <point x="74" y="267" type="curve" smooth="yes"/>
      <point x="74" y="279"/>
      <point x="64" y="289"/>
      <point x="52" y="289" type="curve" smooth="yes"/>
      <point x="40" y="289"/>
      <point x="30" y="279"/>
      <point x="30" y="267" type="curve" smooth="yes"/>
      <point x="30" y="255"/>
      <point x="40" y="245"/>
    </contour>
    <contour>
      <point x="92" y="363" type="curve" smooth="yes"/>
      <point x="104" y="363"/>
      <point x="114" y="373"/>
      <point x="114" y="385" type="curve" smooth="yes"/>
      <point x="114" y="397"/>
      <point x="104" y="407"/>
      <point x="92" y="407" type="curve" smooth="yes"/>
      <point x="80" y="407"/>
      <point x="70" y="397"/>
      <point x="70" y="385" type="curve" smooth="yes"/>
      <point x="70" y="373"/>
      <point x="80" y="363"/>
    </contour>
    <contour>
      <point x="188" y="33" type="curve" smooth="yes"/>
      <point x="200" y="33"/>
      <point x="210" y="43"/>
      <point x="210" y="55" type="curve" smooth="yes"/>
      <point x="210" y="67"/>
      <point x="200" y="77"/>
      <point x="188" y="77" type="curve" smooth="yes"/>
      <point x="176" y="77"/>
      <point x="166" y="67"/>
      <point x="166" y="55" type="curve" smooth="yes"/>
      <point x="166" y="43"/>
      <point x="176" y="33"/>
    </contour>
    <contour>
      <point x="188" y="457" type="curve" smooth="yes"/>
      <point x="200" y="457"/>
      <point x="210" y="467"/>
      <point x="210" y="479" type="curve" smooth="yes"/>
      <point x="210" y="491"/>
      <point x="200" y="501"/>
      <point x="188" y="501" type="curve" smooth="yes"/>
      <point x="176" y="501"/>
      <point x="166" y="491"/>
      <point x="166" y="479" type="curve" smooth="yes"/>
      <point x="166" y="467"/>
      <point x="176" y="457"/>
    </contour>
    <contour>
      <point x="326" y="-2" type="curve" smooth="yes"/>
      <point x="338" y="-2"/>
      <point x="348" y="8"/>
      <point x="348" y="20" type="curve" smooth="yes"/>
      <point x="348" y="32"/>
      <point x="338" y="42"/>
      <point x="326" y="42" type="curve" smooth="yes"/>
      <point x="314" y="42"/>
      <point x="304" y="32"/>
      <point x="304" y="20" type="curve" smooth="yes"/>
      <point x="304" y="8"/>
      <point x="314" y="-2"/>
    </contour>
    <contour>
      <point x="326" y="492" type="curve" smooth="yes"/>
      <point x="338" y="492"/>
      <point x="348" y="502"/>
      <point x="348" y="514" type="curve" smooth="yes"/>
      <point x="348" y="526"/>
      <point x="338" y="536"/>
      <point x="326" y="536" type="curve" smooth="yes"/>
      <point x="314" y="536"/>
      <point x="304" y="526"/>
      <point x="304" y="514" type="curve" smooth="yes"/>
      <point x="304" y="502"/>
      <point x="314" y="492"/>
    </contour>
    <contour>
      <point x="464" y="33" type="curve" smooth="yes"/>
      <point x="476" y="33"/>
      <point x="486" y="43"/>
      <point x="486" y="55" type="curve" smooth="yes"/>
      <point x="486" y="67"/>
      <point x="476" y="77"/>
      <point x="464" y="77" type="curve" smooth="yes"/>
      <point x="452" y="77"/>
      <point x="442" y="67"/>
      <point x="442" y="55" type="curve" smooth="yes"/>
      <point x="442" y="43"/>
      <point x="452" y="33"/>
    </contour>
    <contour>
      <point x="464" y="457" type="curve" smooth="yes"/>
      <point x="476" y="457"/>
      <point x="486" y="467"/>
      <point x="486" y="479" type="curve" smooth="yes"/>
      <point x="486" y="491"/>
      <point x="476" y="501"/>
      <point x="464" y="501" type="curve" smooth="yes"/>
      <point x="452" y="501"/>
      <point x="442" y="491"/>
      <point x="442" y="479" type="curve" smooth="yes"/>
      <point x="442" y="467"/>
      <point x="452" y="457"/>
    </contour>
    <contour>
      <point x="560" y="127" type="curve" smooth="yes"/>
      <point x="572" y="127"/>
      <point x="582" y="137"/>
      <point x="582" y="149" type="curve" smooth="yes"/>
      <point x="582" y="161"/>
      <point x="572" y="171"/>
      <point x="560" y="171" type="curve" smooth="yes"/>
      <point x="548" y="171"/>
      <point x="538" y="161"/>
      <point x="538" y="149" type="curve" smooth="yes"/>
      <point x="538" y="137"/>
      <point x="548" y="127"/>
    </contour>
    <contour>
      <point x="600" y="245" type="curve" smooth="yes"/>
      <point x="612" y="245"/>
      <point x="622" y="255"/>
      <point x="622" y="267" type="curve" smooth="yes"/>
      <point x="622" y="279"/>
      <point x="612" y="289"/>
      <point x="600" y="289" type="curve" smooth="yes"/>
      <point x="588" y="289"/>
      <point x="578" y="279"/>
      <point x="578" y="267" type="curve" smooth="yes"/>
      <point x="578" y="255"/>
      <point x="588" y="245"/>
    </contour>
    <contour>
      <point x="560" y="363" type="curve" smooth="yes"/>
      <point x="572" y="363"/>
      <point x="582" y="373"/>
      <point x="582" y="385" type="curve" smooth="yes"/>
      <point x="582" y="397"/>
      <point x="572" y="407"/>
      <point x="560" y="407" type="curve" smooth="yes"/>
      <point x="548" y="407"/>
      <point x="538" y="397"/>
      <point x="538" y="385" type="curve" smooth="yes"/>
      <point x="538" y="373"/>
      <point x="548" y="363"/>
    </contour>
    <contour>
      <point x="326.0" y="0.0" type="move" name="bottom"/>
    </contour>
    <contour>
      <point x="600.0" y="0.0" type="move" name="bottomright"/>
    </contour>
    <contour>
      <point x="326.0" y="600.0" type="move" name="top"/>
    </contour>
    <contour>
      <point x="600.0" y="600.0" type="move" name="topright"/>
    </contour>
  </outline>
</glyph>
<glyph name="tripleWisanchani-thai" format="1">
  <advance width="634"/>
  <unicode hex="EC04"/>
  <outline>
    <contour>
      <point x="114" y="119" type="curve" smooth="yes" name="hr00"/>
      <point x="279" y="119" type="line"/>
      <point x="279" y="138" type="line"/>
      <point x="106" y="138" type="line"/>
      <point x="106" y="204" type="line"/>
      <point x="85" y="204" type="line"/>
      <point x="85" y="148" type="line" smooth="yes"/>
      <point x="85" y="128"/>
      <point x="94" y="119"/>
    </contour>
    <contour>
      <point x="114" y="391" type="curve" smooth="yes"/>
      <point x="279" y="391" type="line"/>
      <point x="279" y="410" type="line"/>
      <point x="106" y="410" type="line"/>
      <point x="106" y="476" type="line"/>
      <point x="85" y="476" type="line"/>
      <point x="85" y="420" type="line" smooth="yes"/>
      <point x="85" y="400"/>
      <point x="94" y="391"/>
    </contour>
    <contour>
      <point x="384" y="236" type="curve" smooth="yes"/>
      <point x="549" y="236" type="line"/>
      <point x="549" y="255" type="line"/>
      <point x="376" y="255" type="line"/>
      <point x="376" y="321" type="line"/>
      <point x="355" y="321" type="line"/>
      <point x="355" y="265" type="line" smooth="yes"/>
      <point x="355" y="245"/>
      <point x="364" y="236"/>
    </contour>
  </outline>
</glyph>
<glyph name="pikKaa-thai" format="1">
  <advance width="526"/>
  <unicode hex="EC05"/>
  <outline>
    <contour>
      <point x="152" y="-500" type="line" name="hr00"/>
      <point x="319" y="-325" type="line"/>
      <point x="324" y="-319"/>
      <point x="326" y="-316"/>
      <point x="326" y="-307" type="curve" smooth="yes"/>
      <point x="326" y="1038" type="line" smooth="yes"/>
      <point x="326" y="1058"/>
      <point x="317" y="1067"/>
      <point x="297" y="1067" type="curve" smooth="yes"/>
      <point x="130" y="1067" type="line"/>
      <point x="130" y="1048" type="line"/>
      <point x="305" y="1048" type="line"/>
      <point x="305" y="-309" type="line"/>
      <point x="137" y="-484" type="line"/>
    </contour>
  </outline>
</glyph>
<glyph name="tinKhru-thai" format="1">
  <advance width="1660"/>
  <unicode hex="EC06"/>
  <outline>
    <contour>
      <point x="820" y="-533" type="line" name="hr00"/>
      <point x="841" y="-533" type="line"/>
      <point x="841" y="258" type="line"/>
      <point x="1630" y="258" type="line"/>
      <point x="1630" y="277" type="line"/>
      <point x="841" y="277" type="line"/>
      <point x="841" y="1067" type="line"/>
      <point x="820" y="1067" type="line"/>
      <point x="820" y="277" type="line"/>
      <point x="30" y="277" type="line"/>
      <point x="30" y="258" type="line"/>
      <point x="820" y="258" type="line"/>
    </contour>
  </outline>
</glyph>
<glyph name="fannu-thai" format="1">
  <advance width="0"/>
  <unicode hex="EC08"/>
  <outline>
    <contour>
      <point x="-180" y="678" type="line" name="hr00"/>
      <point x="-160" y="678" type="line"/>
      <point x="-160" y="826" type="line"/>
      <point x="-180" y="826" type="line"/>
    </contour>
    <contour>
      <point x="-50" y="678" type="line"/>
      <point x="-30" y="678" type="line"/>
      <point x="-30" y="826" type="line"/>
      <point x="-50" y="826" type="line"/>
    </contour>
    <contour>
      <point x="-105.0" y="558.0" type="move" name="_top"/>
    </contour>
  </outline>
</glyph>
<glyph name="fongdan-thai" format="1">
  <advance width="648"/>
  <unicode hex="EC0A"/>
  <outline>
    <contour>
      <point x="324" y="7" type="curve" smooth="yes" name="hr00"/>
      <point x="182" y="7"/>
      <point x="103" y="98"/>
      <point x="103" y="241" type="curve" smooth="yes"/>
      <point x="103" y="295" type="line" smooth="yes"/>
      <point x="103" y="438"/>
      <point x="182" y="529"/>
      <point x="324" y="529" type="curve" smooth="yes"/>
      <point x="466" y="529"/>
      <point x="545" y="438"/>
      <point x="545" y="295" type="curve" smooth="yes"/>
      <point x="545" y="241" type="line" smooth="yes"/>
      <point x="545" y="98"/>
      <point x="466" y="7"/>
    </contour>
    <contour>
      <point x="249" y="678" type="line"/>
      <point x="269" y="678" type="line"/>
      <point x="269" y="826" type="line"/>
      <point x="249" y="826" type="line"/>
    </contour>
    <contour>
      <point x="324" y="-12" type="curve" smooth="yes"/>
      <point x="477" y="-12"/>
      <point x="568" y="84"/>
      <point x="568" y="268" type="curve" smooth="yes"/>
      <point x="568" y="452"/>
      <point x="477" y="548"/>
      <point x="324" y="548" type="curve" smooth="yes"/>
      <point x="171" y="548"/>
      <point x="80" y="452"/>
      <point x="80" y="268" type="curve" smooth="yes"/>
      <point x="80" y="84"/>
      <point x="171" y="-12"/>
    </contour>
    <contour>
      <point x="379" y="678" type="line"/>
      <point x="399" y="678" type="line"/>
      <point x="399" y="826" type="line"/>
      <point x="379" y="826" type="line"/>
    </contour>
  </outline>
</glyph>
<glyph name="eight-thai.sups" format="1">
  <advance width="423"/>
  <outline>
    <contour>
      <point x="140" y="351" type="curve" smooth="yes" name="hr00"/>
      <point x="189" y="351"/>
      <point x="207" y="382"/>
      <point x="210" y="419" type="curve"/>
      <point x="212" y="419" type="line"/>
      <point x="216" y="383"/>
      <point x="239" y="351"/>
      <point x="293" y="351" type="curve" smooth="yes"/>
      <point x="344" y="351"/>
      <point x="377" y="386"/>
      <point x="377" y="460" type="curve" smooth="yes"/>
      <point x="377" y="526"/>
      <point x="344" y="554"/>
      <point x="304" y="554" type="curve" smooth="yes"/>
      <point x="295" y="554"/>
      <point x="285" y="553"/>
      <point x="276" y="551" type="curve"/>
      <point x="278" y="533" type="line"/>
      <point x="287" y="535"/>
      <point x="296" y="536"/>
      <point x="303" y="536" type="curve" smooth="yes"/>
      <point x="331" y="536"/>
      <point x="355" y="516"/>
      <point x="355" y="473" type="curve" smooth="yes"/>
      <point x="355" y="446" type="line" smooth="yes"/>
      <point x="355" y="398"/>
      <point x="333" y="369"/>
      <point x="292" y="369" type="curve" smooth="yes"/>
      <point x="243" y="369"/>
      <point x="220" y="408"/>
      <point x="220" y="456" type="curve" smooth="yes"/>
      <point x="220" y="484" type="line"/>
      <point x="202" y="484" type="line"/>
      <point x="202" y="456" type="line" smooth="yes"/>
      <point x="202" y="407"/>
      <point x="187" y="369"/>
      <point x="142" y="369" type="curve" smooth="yes"/>
      <point x="94" y="369"/>
      <point x="75" y="408"/>
      <point x="75" y="486" type="curve" smooth="yes"/>
      <point x="75" y="516" type="line" smooth="yes"/>
      <point x="75" y="590"/>
      <point x="108" y="639"/>
      <point x="179" y="653" type="curve" smooth="yes"/>
      <point x="312" y="680" type="line" smooth="yes"/>
      <point x="345" y="687"/>
      <point x="353" y="697"/>
      <point x="356" y="719" type="curve" smooth="yes"/>
      <point x="362" y="760" type="line"/>
      <point x="342" y="760" type="line"/>
      <point x="337" y="720" type="line" smooth="yes"/>
      <point x="335" y="703"/>
      <point x="322" y="700"/>
      <point x="311" y="698" type="curve" smooth="yes"/>
      <point x="177" y="671" type="line" smooth="yes"/>
      <point x="108" y="657"/>
      <point x="53" y="621"/>
      <point x="53" y="501" type="curve" smooth="yes"/>
      <point x="53" y="384"/>
      <point x="85" y="351"/>
    </contour>
  </outline>
</glyph>
<glyph name="four-thai.sups" format="1">
  <advance width="393"/>
  <outline>
    <contour>
      <point x="206" y="359" type="curve" smooth="yes" name="hr00"/>
      <point x="364" y="359" type="line"/>
      <point x="364" y="377" type="line"/>
      <point x="363" y="377" type="line" smooth="yes"/>
      <point x="287" y="377"/>
      <point x="248" y="433"/>
      <point x="248" y="491" type="curve" smooth="yes"/>
      <point x="248" y="520" type="line"/>
      <point x="338" y="520" type="line"/>
      <point x="338" y="538" type="line"/>
      <point x="253" y="538" type="line" smooth="yes"/>
      <point x="233" y="538"/>
      <point x="228" y="528"/>
      <point x="228" y="518" type="curve" smooth="yes"/>
      <point x="228" y="495" type="line" smooth="yes"/>
      <point x="228" y="424"/>
      <point x="268" y="388"/>
      <point x="307" y="379" type="curve"/>
      <point x="307" y="377" type="line"/>
      <point x="206" y="377" type="line" smooth="yes"/>
      <point x="125" y="377"/>
      <point x="75" y="422"/>
      <point x="75" y="502" type="curve" smooth="yes"/>
      <point x="75" y="531" type="line" smooth="yes"/>
      <point x="75" y="589"/>
      <point x="105" y="635"/>
      <point x="180" y="653" type="curve" smooth="yes"/>
      <point x="290" y="680" type="line" smooth="yes"/>
      <point x="326" y="689"/>
      <point x="331" y="701"/>
      <point x="334" y="719" type="curve" smooth="yes"/>
      <point x="340" y="760" type="line"/>
      <point x="320" y="760" type="line"/>
      <point x="314" y="720" type="line" smooth="yes"/>
      <point x="312" y="707"/>
      <point x="306" y="702"/>
      <point x="289" y="698" type="curve" smooth="yes"/>
      <point x="177" y="671" type="line" smooth="yes"/>
      <point x="98" y="652"/>
      <point x="53" y="612"/>
      <point x="53" y="517" type="curve" smooth="yes"/>
      <point x="53" y="407"/>
      <point x="112" y="359"/>
    </contour>
  </outline>
</glyph>
<glyph name="maiEk-thai.narrow" format="1">
  <advance width="0"/>
  <outline>
    <contour>
      <point x="-85" y="678" type="line" name="hr00"/>
      <point x="-65" y="678" type="line"/>
      <point x="-65" y="826" type="line"/>
      <point x="-85" y="826" type="line"/>
    </contour>
    <contour>
      <point x="0.0" y="600.0" type="move" name="_topright"/>
    </contour>
    <contour>
      <point x="-65.0" y="838.0" type="move" name="topright"/>
    </contour>
  </outline>
</glyph>
<glyph name="maiTho-thai.narrow" format="1">
  <advance width="0"/>
  <outline>
    <contour>
      <point x="-373" y="681" type="line" name="hr00"/>
      <point x="-65" y="681" type="line"/>
      <point x="-65" y="698" type="line"/>
      <point x="-265" y="698" type="line"/>
      <point x="-265" y="700" type="line"/>
      <point x="-261" y="713"/>
      <point x="-256" y="738"/>
      <point x="-256" y="760" type="curve" smooth="yes"/>
      <point x="-256" y="810"/>
      <point x="-278" y="834"/>
      <point x="-329" y="834" type="curve" smooth="yes"/>
      <point x="-373" y="834" type="line"/>
      <point x="-373" y="817" type="line"/>
      <point x="-333" y="817" type="line" smooth="yes"/>
      <point x="-293" y="817"/>
      <point x="-276" y="800"/>
      <point x="-276" y="759" type="curve" smooth="yes"/>
      <point x="-276" y="698" type="line"/>
      <point x="-373" y="698" type="line"/>
    </contour>
    <contour>
      <point x="0.0" y="600.0" type="move" name="_topright"/>
    </contour>
  </outline>
</glyph>
<glyph name="maiTho-thai.small" format="1">
  <advance width="0"/>
  <outline>
    <contour>
      <point x="-108" y="858" type="line" name="hr00"/>
      <point x="146" y="858" type="line"/>
      <point x="146" y="875" type="line"/>
      <point x="-10" y="875" type="line"/>
      <point x="-10" y="877" type="line"/>
      <point x="-6" y="888"/>
      <point x="-1" y="912"/>
      <point x="-1" y="931" type="curve" smooth="yes"/>
      <point x="-1" y="976"/>
      <point x="-23" y="998"/>
      <point x="-74" y="998" type="curve" smooth="yes"/>
      <point x="-108" y="998" type="line"/>
      <point x="-108" y="981" type="line"/>
      <point x="-78" y="981" type="line" smooth="yes"/>
      <point x="-38" y="981"/>
      <point x="-21" y="966"/>
      <point x="-21" y="930" type="curve" smooth="yes"/>
      <point x="-21" y="875" type="line"/>
      <point x="-108" y="875" type="line"/>
    </contour>
    <contour>
      <point x="0.0" y="800.0" type="move" name="_topright"/>
    </contour>
  </outline>
</glyph>
<glyph name="maiTri-thai.narrow" format="1">
  <advance width="0"/>
  <outline>
    <contour>
      <point x="-428" y="679" type="line" name="hr00"/>
      <point x="-408" y="679" type="line"/>
      <point x="-408" y="739" type="line" smooth="yes"/>
      <point x="-408" y="775"/>
      <point x="-387" y="795"/>
      <point x="-354" y="795" type="curve" smooth="yes"/>
      <point x="-316" y="795"/>
      <point x="-296" y="774"/>
      <point x="-296" y="735" type="curve" smooth="yes"/>
      <point x="-296" y="716" type="line"/>
      <point x="-277" y="716" type="line"/>
      <point x="-277" y="735" type="line" smooth="yes"/>
      <point x="-277" y="774"/>
      <point x="-257" y="795"/>
      <point x="-219" y="795" type="curve" smooth="yes"/>
      <point x="-186" y="795"/>
      <point x="-165" y="775"/>
      <point x="-165" y="739" type="curve" smooth="yes"/>
      <point x="-165" y="681" type="line"/>
      <point x="-55" y="681" type="line"/>
      <point x="-55" y="698" type="line"/>
      <point x="-145" y="698" type="line"/>
      <point x="-145" y="741" type="line" smooth="yes"/>
      <point x="-145" y="787"/>
      <point x="-175" y="812"/>
      <point x="-217" y="812" type="curve" smooth="yes"/>
      <point x="-255" y="812"/>
      <point x="-277" y="794"/>
      <point x="-285" y="761" type="curve"/>
      <point x="-288" y="761" type="line"/>
      <point x="-296" y="794"/>
      <point x="-318" y="812"/>
      <point x="-356" y="812" type="curve" smooth="yes"/>
      <point x="-398" y="812"/>
      <point x="-428" y="787"/>
      <point x="-428" y="741" type="curve" smooth="yes"/>
    </contour>
    <contour>
      <point x="0.0" y="600.0" type="move" name="_topright"/>
    </contour>
    <contour>
      <point x="-145.0" y="800.0" type="move" name="topright"/>
    </contour>
  </outline>
</glyph>
<glyph name="maiTri-thai.small" format="1">
  <advance width="0"/>
  <outline>
    <contour>
      <point x="-265" y="858" type="line" name="hr00"/>
      <point x="-245" y="858" type="line"/>
      <point x="-245" y="919" type="line" smooth="yes"/>
      <point x="-245" y="955"/>
      <point x="-227" y="975"/>
      <point x="-196" y="975" type="curve" smooth="yes"/>
      <point x="-161" y="975"/>
      <point x="-142" y="954"/>
      <point x="-142" y="915" type="curve" smooth="yes"/>
      <point x="-142" y="896" type="line"/>
      <point x="-123" y="896" type="line"/>
      <point x="-123" y="915" type="line" smooth="yes"/>
      <point x="-123" y="954"/>
      <point x="-105" y="975"/>
      <point x="-72" y="975" type="curve" smooth="yes"/>
      <point x="-39" y="975"/>
      <point x="-20" y="955"/>
      <point x="-20" y="919" type="curve" smooth="yes"/>
      <point x="-20" y="858" type="line"/>
      <point x="104" y="858" type="line"/>
      <point x="104" y="875" type="line"/>
      <point x="0" y="875" type="line"/>
      <point x="0" y="921" type="line" smooth="yes"/>
      <point x="0" y="967"/>
      <point x="-28" y="992"/>
      <point x="-69" y="992" type="curve" smooth="yes"/>
      <point x="-101" y="992"/>
      <point x="-125" y="974"/>
      <point x="-131" y="941" type="curve"/>
      <point x="-134" y="941" type="line"/>
      <point x="-140" y="974"/>
      <point x="-165" y="992"/>
      <point x="-199" y="992" type="curve" smooth="yes"/>
      <point x="-238" y="992"/>
      <point x="-265" y="967"/>
      <point x="-265" y="921" type="curve" smooth="yes"/>
    </contour>
    <contour>
      <point x="0.0" y="800.0" type="move" name="_topright"/>
    </contour>
  </outline>
</glyph>
<glyph name="nikhahit-thai.narrow" format="1">
  <advance width="0"/>
  <outline>
    <contour>
      <point x="-177" y="665" type="curve" smooth="yes" name="hr00"/>
      <point x="-217" y="665"/>
      <point x="-242" y="691"/>
      <point x="-242" y="723" type="curve" smooth="yes"/>
      <point x="-242" y="743" type="line" smooth="yes"/>
      <point x="-242" y="775"/>
      <point x="-217" y="801"/>
      <point x="-177" y="801" type="curve" smooth="yes"/>
      <point x="-137" y="801"/>
      <point x="-112" y="775"/>
      <point x="-112" y="743" type="curve" smooth="yes"/>
      <point x="-112" y="723" type="line" smooth="yes"/>
      <point x="-112" y="691"/>
      <point x="-137" y="665"/>
    </contour>
    <contour>
      <point x="-177" y="646" type="curve" smooth="yes"/>
      <point x="-124" y="646"/>
      <point x="-91" y="684"/>
      <point x="-91" y="733" type="curve" smooth="yes"/>
      <point x="-91" y="782"/>
      <point x="-124" y="820"/>
      <point x="-177" y="820" type="curve" smooth="yes"/>
      <point x="-230" y="820"/>
      <point x="-263" y="782"/>
      <point x="-263" y="733" type="curve" smooth="yes"/>
      <point x="-263" y="684"/>
      <point x="-230" y="646"/>
    </contour>
    <contour>
      <point x="0.0" y="600.0" type="move" name="_topright"/>
    </contour>
    <contour>
      <point x="-167.0" y="840.0" type="move" name="topright"/>
    </contour>
  </outline>
</glyph>
<glyph name="nine-thai.sups" format="1">
  <advance width="452"/>
  <outline>
    <contour>
      <point x="177" y="351" type="curve" smooth="yes" name="hr00"/>
      <point x="186" y="351"/>
      <point x="196" y="351"/>
      <point x="205" y="352" type="curve"/>
      <point x="204" y="371" type="line"/>
      <point x="192" y="369"/>
      <point x="185" y="369"/>
      <point x="178" y="369" type="curve" smooth="yes"/>
      <point x="109" y="369"/>
      <point x="79" y="436"/>
      <point x="79" y="503" type="curve" smooth="yes"/>
      <point x="79" y="572" type="line" smooth="yes"/>
      <point x="79" y="648"/>
      <point x="107" y="692"/>
      <point x="158" y="692" type="curve" smooth="yes"/>
      <point x="209" y="692"/>
      <point x="229" y="655"/>
      <point x="243" y="610" type="curve" smooth="yes"/>
      <point x="321" y="359" type="line"/>
      <point x="344" y="359" type="line"/>
      <point x="278" y="567" type="line" smooth="yes"/>
      <point x="271" y="589"/>
      <point x="269" y="607"/>
      <point x="269" y="623" type="curve" smooth="yes"/>
      <point x="269" y="672"/>
      <point x="299" y="692"/>
      <point x="328" y="692" type="curve" smooth="yes"/>
      <point x="370" y="692"/>
      <point x="399" y="656"/>
      <point x="399" y="590" type="curve"/>
      <point x="416" y="591" type="line"/>
      <point x="445" y="760" type="line"/>
      <point x="425" y="760" type="line"/>
      <point x="403" y="619" type="line"/>
      <point x="402" y="619" type="line"/>
      <point x="402" y="668"/>
      <point x="377" y="710"/>
      <point x="327" y="710" type="curve" smooth="yes"/>
      <point x="285" y="710"/>
      <point x="257" y="678"/>
      <point x="257" y="635" type="curve" smooth="yes"/>
      <point x="257" y="630"/>
      <point x="257" y="626"/>
      <point x="258" y="621" type="curve"/>
      <point x="256" y="621" type="line"/>
      <point x="244" y="666"/>
      <point x="214" y="710"/>
      <point x="158" y="710" type="curve" smooth="yes"/>
      <point x="93" y="710"/>
      <point x="57" y="661"/>
      <point x="57" y="538" type="curve" smooth="yes"/>
      <point x="57" y="417"/>
      <point x="99" y="351"/>
    </contour>
  </outline>
</glyph>
<glyph name="ru_lakkhangyao-thai" format="1">
  <advance width="892"/>
  <outline>
    <contour>
      <point x="483" y="-180" type="line" name="hr00"/>
      <point x="504" y="-180" type="line"/>
      <point x="504" y="345" type="line" smooth="yes"/>
      <point x="504" y="379"/>
      <point x="499" y="409"/>
      <point x="489" y="435" type="curve"/>
      <point x="517" y="500"/>
      <point x="566" y="529"/>
      <point x="642" y="529" type="curve" smooth="yes"/>
      <point x="736" y="529"/>
      <point x="786" y="483"/>
      <point x="786" y="379" type="curve" smooth="yes"/>
      <point x="786" y="-180" type="line"/>
      <point x="807" y="-180" type="line"/>
      <point x="807" y="382" type="line" smooth="yes"/>
      <point x="807" y="489"/>
      <point x="752" y="548"/>
      <point x="642" y="548" type="curve" smooth="yes"/>
      <point x="556" y="548"/>
      <point x="507" y="514"/>
      <point x="478" y="458" type="curve"/>
      <point x="445" y="517"/>
      <point x="381" y="548"/>
      <point x="286" y="548" type="curve" smooth="yes"/>
      <point x="164" y="548"/>
      <point x="74" y="476"/>
      <point x="60" y="377" type="curve"/>
      <point x="141" y="347" type="line"/>
      <point x="141" y="29" type="line" smooth="yes"/>
      <point x="141" y="9"/>
      <point x="150" y="0"/>
      <point x="170" y="0" type="curve" smooth="yes"/>
      <point x="247" y="0" type="line"/>
      <point x="247" y="19" type="line"/>
      <point x="162" y="19" type="line"/>
      <point x="162" y="345" type="line" smooth="yes"/>
      <point x="162" y="355"/>
      <point x="159" y="360"/>
      <point x="150" y="363" type="curve" smooth="yes"/>
      <point x="81" y="388" type="line"/>
      <point x="97" y="465"/>
      <point x="170" y="529"/>
      <point x="286" y="529" type="curve" smooth="yes"/>
      <point x="411" y="529"/>
      <point x="483" y="471"/>
      <point x="483" y="345" type="curve" smooth="yes"/>
    </contour>
    <contour>
      <point x="490.0" y="558.0" type="move" name="top"/>
    </contour>
  </outline>
</glyph>
<glyph name="saraUee-thai.narrow" format="1">
  <advance width="0"/>
  <outline>
    <contour>
      <point x="-429" y="679" type="line" name="hr00"/>
      <point x="-65" y="679" type="line"/>
      <point x="-65" y="787" type="line"/>
      <point x="-85" y="787" type="line"/>
      <point x="-85" y="698" type="line"/>
      <point x="-165" y="698" type="line"/>
      <point x="-165" y="787" type="line"/>
      <point x="-185" y="787" type="line"/>
      <point x="-185" y="698" type="line"/>
      <point x="-429" y="698" type="line"/>
    </contour>
    <contour>
      <point x="0.0" y="600.0" type="move" name="_topright"/>
    </contour>
    <contour>
      <point x="-65.0" y="800.0" type="move" name="topright"/>
    </contour>
  </outline>
</glyph>
<glyph name="thanthakhat-thai.small" format="1">
  <advance width="0"/>
  <outline>
    <contour>
      <point x="-117" y="858" type="line" name="hr00"/>
      <point x="-97" y="858" type="line"/>
      <point x="-97" y="939" type="line"/>
      <point x="102" y="939" type="line"/>
      <point x="102" y="958" type="line"/>
      <point x="-90" y="958" type="line" smooth="yes"/>
      <point x="-108" y="958"/>
      <point x="-117" y="950"/>
      <point x="-117" y="932" type="curve" smooth="yes"/>
    </contour>
    <contour>
      <point x="0.0" y="800.0" type="move" name="_topright"/>
    </contour>
  </outline>
</glyph>
<glyph name="three-thai.sups" format="1">
  <advance width="503"/>
  <outline>
    <contour>
      <point x="199" y="351" type="curve" smooth="yes" name="hr00"/>
      <point x="214" y="351"/>
      <point x="233" y="353"/>
      <point x="249" y="357" type="curve"/>
      <point x="246" y="374" type="line"/>
      <point x="230" y="370"/>
      <point x="214" y="369"/>
      <point x="204" y="369" type="curve" smooth="yes"/>
      <point x="116" y="369"/>
      <point x="79" y="444"/>
      <point x="79" y="521" type="curve" smooth="yes"/>
      <point x="79" y="561" type="line" smooth="yes"/>
      <point x="79" y="644"/>
      <point x="109" y="692"/>
      <point x="167" y="692" type="curve" smooth="yes"/>
      <point x="219" y="692"/>
      <point x="238" y="653"/>
      <point x="238" y="612" type="curve" smooth="yes"/>
      <point x="238" y="472" type="line"/>
      <point x="258" y="472" type="line"/>
      <point x="258" y="612" type="line" smooth="yes"/>
      <point x="258" y="653"/>
      <point x="281" y="692"/>
      <point x="339" y="692" type="curve" smooth="yes"/>
      <point x="401" y="692"/>
      <point x="421" y="646"/>
      <point x="421" y="589" type="curve" smooth="yes"/>
      <point x="421" y="359" type="line"/>
      <point x="441" y="359" type="line"/>
      <point x="441" y="594" type="line" smooth="yes"/>
      <point x="441" y="659"/>
      <point x="412" y="710"/>
      <point x="339" y="710" type="curve" smooth="yes"/>
      <point x="275" y="710"/>
      <point x="253" y="671"/>
      <point x="250" y="647" type="curve"/>
      <point x="247" y="647" type="line"/>
      <point x="243" y="674"/>
      <point x="221" y="710"/>
      <point x="167" y="710" type="curve" smooth="yes"/>
      <point x="99" y="710"/>
      <point x="57" y="655"/>
      <point x="57" y="545" type="curve" smooth="yes"/>
      <point x="57" y="427"/>
      <point x="106" y="351"/>
    </contour>
  </outline>
</glyph>
<glyph name="toPatak-thai.short" format="1">
  <advance width="592"/>
  <outline>
    <contour>
      <point x="157" y="-98" type="line" name="hr00"/>
      <point x="215" y="-98" type="line" smooth="yes"/>
      <point x="264" y="-98"/>
      <point x="297" y="-69"/>
      <point x="308" y="-10" type="curve"/>
      <point x="311" y="-10" type="line"/>
      <point x="323" y="-69"/>
      <point x="360" y="-98"/>
      <point x="407" y="-98" type="curve" smooth="yes"/>
      <point x="471" y="-98"/>
      <point x="507" y="-56"/>
      <point x="507" y="22" type="curve" smooth="yes"/>
      <point x="507" y="344" type="line" smooth="yes"/>
      <point x="507" y="477"/>
      <point x="433" y="548"/>
      <point x="291" y="548" type="curve" smooth="yes"/>
      <point x="169" y="548"/>
      <point x="80" y="476"/>
      <point x="66" y="377" type="curve"/>
      <point x="147" y="347" type="line"/>
      <point x="147" y="19" type="line"/>
      <point x="62" y="19" type="line"/>
      <point x="62" y="0" type="line"/>
      <point x="139" y="0" type="line" smooth="yes"/>
      <point x="159" y="0"/>
      <point x="168" y="9"/>
      <point x="168" y="29" type="curve" smooth="yes"/>
      <point x="168" y="345" type="line" smooth="yes"/>
      <point x="168" y="355"/>
      <point x="165" y="360"/>
      <point x="156" y="363" type="curve" smooth="yes"/>
      <point x="87" y="388" type="line"/>
      <point x="103" y="465"/>
      <point x="175" y="529"/>
      <point x="291" y="529" type="curve" smooth="yes"/>
      <point x="415" y="529"/>
      <point x="486" y="471"/>
      <point x="486" y="344" type="curve" smooth="yes"/>
      <point x="486" y="24" type="line" smooth="yes"/>
      <point x="486" y="-44"/>
      <point x="459" y="-79"/>
      <point x="406" y="-79" type="curve" smooth="yes"/>
      <point x="355" y="-79"/>
      <point x="326" y="-41"/>
      <point x="319" y="12" type="curve"/>
      <point x="302" y="12" type="line"/>
      <point x="295" y="-41"/>
      <point x="268" y="-79"/>
      <point x="212" y="-79" type="curve" smooth="yes"/>
      <point x="157" y="-79" type="line"/>
    </contour>
    <contour>
      <point x="507.0" y="-40.0" type="move" name="bottomright"/>
    </contour>
    <contour>
      <point x="291.0" y="558.0" type="move" name="top"/>
    </contour>
    <contour>
      <point x="507.0" y="600.0" type="move" name="topright"/>
    </contour>
  </outline>
</glyph>
<glyph name="yamakkan-thai.narrow" format="1">
  <advance width="0"/>
  <outline>
    <contour>
      <point x="-112" y="660" type="curve" smooth="yes" name="hr00"/>
      <point x="-65" y="660" type="line"/>
      <point x="-65" y="678" type="line"/>
      <point x="-102" y="678" type="line" smooth="yes"/>
      <point x="-147" y="678"/>
      <point x="-167" y="695"/>
      <point x="-167" y="725" type="curve" smooth="yes"/>
      <point x="-167" y="761"/>
      <point x="-143" y="783"/>
      <point x="-92" y="783" type="curve" smooth="yes"/>
      <point x="-43" y="783" type="line"/>
      <point x="-43" y="800" type="line"/>
      <point x="-68" y="800" type="line" smooth="yes"/>
      <point x="-110" y="800"/>
      <point x="-136" y="817"/>
      <point x="-136" y="856" type="curve" smooth="yes"/>
      <point x="-136" y="882"/>
      <point x="-115" y="902"/>
      <point x="-77" y="902" type="curve" smooth="yes"/>
      <point x="-61" y="902"/>
      <point x="-39" y="896"/>
      <point x="-26" y="888" type="curve"/>
      <point x="-17" y="903" type="line"/>
      <point x="-33" y="913"/>
      <point x="-52" y="920"/>
      <point x="-79" y="920" type="curve" smooth="yes"/>
      <point x="-127" y="920"/>
      <point x="-155" y="895"/>
      <point x="-155" y="856" type="curve" smooth="yes"/>
      <point x="-155" y="824"/>
      <point x="-133" y="803"/>
      <point x="-103" y="795" type="curve"/>
      <point x="-103" y="793" type="line"/>
      <point x="-157" y="793"/>
      <point x="-186" y="759"/>
      <point x="-186" y="725" type="curve" smooth="yes"/>
      <point x="-186" y="682"/>
      <point x="-159" y="660"/>
    </contour>
    <contour>
      <point x="0.0" y="600.0" type="move" name="_topright"/>
    </contour>
  </outline>
</glyph>
<glyph name="zero-thai.sups" format="1">
  <advance width="426"/>
  <outline>
    <contour>
      <point x="213" y="368" type="curve" smooth="yes" name="hr00"/>
      <point x="126" y="368"/>
      <point x="76" y="422"/>
      <point x="76" y="511" type="curve" smooth="yes"/>
      <point x="76" y="549" type="line" smooth="yes"/>
      <point x="76" y="638"/>
      <point x="126" y="692"/>
      <point x="213" y="692" type="curve" smooth="yes"/>
      <point x="300" y="692"/>
      <point x="350" y="638"/>
      <point x="350" y="549" type="curve" smooth="yes"/>
      <point x="350" y="511" type="line" smooth="yes"/>
      <point x="350" y="422"/>
      <point x="300" y="368"/>
    </contour>
    <contour>
      <point x="213" y="350" type="curve" smooth="yes"/>
      <point x="312" y="350"/>
      <point x="372" y="413"/>
      <point x="372" y="530" type="curve" smooth="yes"/>
      <point x="372" y="647"/>
      <point x="312" y="710"/>
      <point x="213" y="710" type="curve" smooth="yes"/>
      <point x="114" y="710"/>
      <point x="54" y="647"/>
      <point x="54" y="530" type="curve" smooth="yes"/>
      <point x="54" y="413"/>
      <point x="114" y="350"/>
    </contour>
  </outline>
</glyph>
